<?xml version="1.0" standalone="no"?>
<!DOCTYPE svg PUBLIC "-//W3C//DTD SVG 20010904//EN"
 "http://www.w3.org/TR/2001/REC-SVG-20010904/DTD/svg10.dtd">
<svg version="1.0" xmlns="http://www.w3.org/2000/svg"
 width="146.000000pt" height="146.000000pt" viewBox="0 0 146.000000 146.000000"
 preserveAspectRatio="xMidYMid meet">
<metadata>
Created by potrace 1.14, written by Peter Selinger 2001-2017
</metadata>
<g transform="translate(0.000000,146.000000) scale(0.100000,-0.100000)"
fill="#000000" stroke="none">
<path d="M1258 1455 c-2 -2 -34 -6 -73 -9 -38 -3 -83 -8 -100 -10 -30 -4 -113
-12 -227 -21 -35 -3 -119 -7 -188 -10 -111 -5 -132 -9 -188 -35 -40 -19 -68
-40 -79 -58 -9 -16 -29 -34 -44 -41 -57 -25 -74 -54 -103 -178 -41 -168 -42
-195 -16 -238 21 -34 21 -36 5 -92 -10 -32 -19 -65 -21 -73 -2 -8 -13 -49 -24
-90 -12 -41 -22 -79 -24 -85 -1 -5 -9 -37 -16 -70 -15 -67 -17 -72 -20 -82 -1
-5 -3 -12 -5 -18 -1 -5 -3 -12 -4 -15 -2 -3 -4 -14 -6 -25 -1 -11 -10 -51 -20
-90 -28 -112 -20 -154 36 -192 21 -15 61 -18 134 -8 151 19 304 33 440 40 50
3 99 7 110 9 49 10 162 85 149 99 -3 3 12 15 35 26 22 12 48 32 56 45 19 29
94 303 90 326 -2 8 -6 27 -10 41 -4 16 4 61 20 120 15 52 28 101 30 110 2 9 8
34 14 55 6 22 11 49 11 62 0 12 15 37 33 55 24 25 40 58 66 143 18 60 35 120
38 134 2 14 7 26 11 28 4 1 6 20 4 42 -5 46 -45 94 -86 102 -14 3 -27 4 -28 3z"/>
</g>
</svg>
